<?xml version="1.0"?>
<svg xmlnsRdf="http://www.w3.org/1999/02/22-rdf-syntax-ns#" xmlns="http://www.w3.org/2000/svg" xmlnsCc="http://web.resource.org/cc/" xmlnsXlink="http://www.w3.org/1999/xlink" xmlnsDc="http://purl.org/dc/elements/1.1/" xmlnsSvg="http://www.w3.org/2000/svg" space="preserve" viewBox="0 0 403.33 319.683" enable-background="new 0 0 403.33 319.683" overflow="visible">
  <g id="Layer_1">
    <g clip-rule="evenodd" fill-rule="evenodd">
      <path d="m96.574 160.21c-22.248 21.349-40.788 38.809-56.592 53.209-15.912 14.327-31.5 24.876-37.44 32.327-5.904 7.2-0.648 8.244 2.556 11.484 3.132 3.204 8.064 3.96 16.596 8.1 8.532 4.032 22.464 10.44 34.452 16.164 11.916 5.616 20.88 11.988 36.612 17.856 15.732 5.94 38.988 13.608 56.988 17.028 17.856 3.275 32.04 4.176 49.788 2.556 17.748-1.8 38.268-3.24 55.728-12.78 17.28-9.756 31.644-25.344 47.664-44.244 15.984-18.936 31.644-41.256 47.664-68.075-84.67-11.2-169.34-22.4-254.02-33.63z"/>
      <path d="m101.4 158.48c-22.248 21.384-40.788 38.736-56.592 53.172-15.912 14.328-31.5 24.876-37.44 32.328-5.904 7.2-0.648 8.244 2.556 11.484 3.06 3.204 8.064 3.96 16.56 8.1 8.604 4.032 22.5 10.44 34.488 16.164 11.844 5.688 20.844 12.024 36.576 17.892 15.696 5.797 38.916 14.185 57.024 16.992 18.036 2.593 33.228 1.98 50.436-0.72 17.136-2.736 35.172-5.616 51.479-15.3 16.093-9.937 30.24-25.524 44.964-42.732 14.725-17.172 28.692-36.684 42.732-59.364-80.93-12.66-161.85-25.33-242.78-38.01z" fill="#fff"/>
      <path d="m109.35 221.05c15.228 3.996 28.836 6.408 41.256 7.235 12.348 0.685 21.78-0.035 32.76-2.556 10.908-2.52 21.492-6.624 32.328-12.312-7.775 6.695-16.956 11.376-28.08 14.436-11.268 2.952-25.092 4.464-38.268 3.42-13.18-1.22-26.32-4.49-40-10.22z"/>
      <path d="m113.17 232.54c10.116 3.349 21.096 5.437 33.624 6.408 12.492 0.937 27.576 1.944 40.824-0.864 13.176-2.951 25.38-8.388 37.44-16.596-13.068 6.912-26.352 11.592-40.392 14.04-14.184 2.269-31.392 0.972-43.416 0.432-12.01-0.58-21.23-1.59-28.07-3.42z"/>
      <path d="m80.842 232.54c7.56 3.925 17.64 7.236 30.636 10.225 12.924 2.88 30.42 7.235 46.8 7.235 16.38-0.144 34.74-2.231 50.616-7.668 15.804-5.58 29.952-13.716 43.416-25.092-15.156 9.504-28.872 16.416-41.724 21.276-12.96 4.716-22.644 5.976-34.884 7.235-12.384 1.152-22.356 2.124-38.268 0-16-2.28-34.54-6.64-56.608-13.22z"/>
      <path d="m86.782 245.32c7.56 3.924 17.64 7.236 30.636 10.224 12.924 2.881 30.42 7.236 46.8 7.236 16.308-0.144 34.812-2.231 50.652-7.668 15.804-5.58 29.987-13.716 43.38-25.092-15.229 9.504-28.801 16.416-41.688 21.276-12.96 4.644-22.644 5.976-34.884 7.199-12.348 1.152-22.428 2.124-38.304 0-16.1-2.31-34.46-6.56-56.598-13.18z"/>
      <path d="m81.274 251.69c11.196 5.616 23.58 10.116 37.836 13.644 14.184 3.421 30.384 7.272 46.8 7.236 16.272-0.144 32.184-0.432 50.652-7.668 18.54-7.344 38.017-19.116 59.544-35.748-14.939 10.332-28.656 18.648-42.12 25.092-13.392 6.336-23.04 10.836-37.835 13.212-15.012 2.376-31.86 3.349-51.084 0.828-19.4-2.69-40.21-8.09-63.786-16.59z"/>
      <path d="m69.358 258.1c17.208 9.504 33.516 16.416 49.752 21.275 16.056 4.752 30.492 7.164 46.8 7.236 16.38-0.036 32.112-0.504 50.652-7.668 18.396-7.488 37.836-19.224 59.148-36.18-15.696 11.304-30.889 20.195-46.404 26.819-15.588 6.66-29.232 11.053-45.936 12.744-16.812 1.513-34.452 0.576-53.604-3.384-19.12-4.08-39.064-11.02-60.412-20.85z"/>
      <path d="m97.654 168.13c-11.124 7.235-54.036 49.68-68.616 62.783-14.472 12.744-15.12 10.297-17.784 14.04-2.736 3.564-2.664 4.788 1.764 7.849 4.392 3.023 15.768 7.056 24.552 10.439 8.748 3.204 24.768 12.708 27.648 9.36 2.628-3.528-14.58-21.78-11.484-29.34 3.096-7.524 24.912-9.072 29.772-15.336 4.608-6.444-3.456-15.948-1.692-22.536s9.576-10.368 12.312-16.596c2.664-6.35 14.254-27.59 3.528-20.65z"/>
      <path d="m88.51 167.88s5.94 4.896 17.424 8.531c11.556 3.637 34.596 9.36 51.048 13.177 16.452 3.779 30.204 6.407 46.8 9.359 16.597 2.916 32.4 5.437 51.912 8.064 19.549 2.664 43.561 6.228 64.261 7.668 20.664 1.439 45.756 2.771 58.716 0.864 12.779-1.944 13.716 0.071 17.855-12.349 4.141-12.6 6.84-42.552 6.805-62.1-0.108-19.548-2.736-41.4-7.236-54.036-4.536-12.564-14.112-13.932-19.548-20.844-5.437-6.948-5.185-13.14-12.78-20.448-7.704-7.308-20.771-16.812-32.76-22.968-12.024-6.12-25.561-10.872-38.736-13.608-13.14-2.7-23.904-2.484-39.563-2.556-15.696-0.072-37.332-0.864-53.604 2.124-16.2 3.024-32.724 10.656-42.948 15.732-10.188 5.076-12.312 9.324-17.892 14.472s-10.008 5.004-15.3 16.164c-5.292 11.304-10.368 31.68-16.164 50.652-5.82 18.98-18.28 62.11-18.28 62.11z"/>
      <path d="m92.866 165.97s9.9 4.644 21.384 8.28c11.556 3.672 32.4 9.72 48.852 13.535 16.452 3.744 34.92 6.229 51.48 9.145 16.596 2.952 33.3 6.516 52.812 9.18 19.548 2.628 38.664 4.645 59.364 6.12 20.664 1.404 31.104 1.908 44.063 0 12.78-1.944 16.345 4.14 20.484-8.316 4.14-12.6 7.92-42.84 7.884-62.388-0.107-19.548-0.756-40.608-5.256-53.244-4.536-12.528-16.812-15.3-22.248-22.248s-1.979-8.856-9.612-16.128c-7.668-7.308-19.403-15.66-31.392-21.816-12.06-6.156-22.212-12.564-35.352-15.3-13.177-2.7-24.517-2.088-40.141-2.16-15.695-0.072-34.812-2.556-51.048 0.432-16.236 3.024-33.804 10.116-44.064 15.192-10.188 5.076-12.312 9.324-17.892 14.472-5.58 5.112-10.008 4.968-15.3 16.164-5.292 11.268-10.368 31.644-16.164 50.616-5.82 19.03-17.844 58.48-17.844 58.48z" fill="#fff"/>
      <path d="m133.19 183.61c-0.108-6.804 1.584-16.308 5.076-28.908 3.456-12.708 10.332-33.804 15.768-46.368 5.436-12.672 11.196-19.908 16.164-28.512 4.752-8.604 6.912-15.336 12.744-22.968 5.832-7.92 14.688-16.596 22.141-23.4 7.271-6.876 12.563-13.104 21.708-17.028 9.216-3.924 29.016-5.256 32.724-6.372 3.348-1.296-6.768-1.26-11.88-0.864-5.328 0.396-13.464 1.44-18.72 2.988-5.185 1.26-7.813 2.628-11.916 5.508-4.284 2.88-8.82 8.244-12.78 11.916-3.924 3.564-7.092 6.084-10.62 9.792-3.636 3.6-6.912 7.2-10.656 12.348-3.78 5.148-6.552 9.216-11.916 18.72-5.58 9.54-15.588 26.1-20.844 37.872-5.328 11.556-7.056 18.9-10.62 31.464-3.636 12.6-7.056 26.749-10.656 43.417 1.42 0.11 2.86 0.26 4.3 0.4z"/>
      <path d="m276.57 9.301c14.292 10.116 25.345 19.152 33.589 27.54 8.1 8.316 11.483 11.34 15.3 22.14 3.744 10.728 6.948 26.892 7.235 41.688 0.217 14.58-2.268 26.928-5.939 45.936-3.816 19.08-9.252 41.256-16.596 67.644h4.68c2.268-10.871 4.824-22.176 7.668-34.451 2.844-12.385 7.128-25.236 9.36-38.7 2.124-13.644 3.203-30.6 3.384-41.724 0-11.124-0.864-15.264-2.988-24.228-2.232-9.18-4.14-20.412-9.756-29.376-5.796-8.964-16.056-17.676-23.832-23.796-7.7-6.122-14.97-10.298-22.1-12.675z"/>
      <path d="m199.53 41.954c5.508-6.624 13.068-12.204 17.676-15.624 4.536-3.384 3.852-2.988 9.611-4.788 5.688-1.98 17.353-5.508 24.444-6.552 6.984-1.116 12.744 0.144 17.424 0.432 4.536 0.216 7.128-0.324 10.404 1.008 3.168 1.224 5.976 4.428 9.252 6.84 3.276 2.268 6.768 4.572 10.332 7.2 3.528 2.592 7.488 4.5 10.62 8.496 3.023 3.852 11.88 13.212 7.668 14.904-4.428 1.476-26.928-6.192-33.624-5.112-6.696 1.188-1.692 13.392-6.372 11.916-4.896-1.764-13.284-20.664-22.104-21.708-8.819-1.008-22.283 9.936-30.239 15.336-7.992 5.256-13.896 15.876-17.424 16.164-3.564 0-0.217-14.508-3.96-15.336-3.924-0.72-18.36 12.744-19.008 10.656-0.54-2.341 9.65-17.137 15.3-23.832z"/>
      <path d="m307.53 20.678c9.288 2.736 18.181 6.768 27.072 12.636 8.928 5.796 24.912 19.368 25.74 21.816 0.504 2.196-19.224-9.612-22.104-8.064-2.845 1.512 5.939 15.336 5.111 17.028-0.936 1.584-4.392-0.72-10.512-7.2-3.024-5.148-6.516-10.08-10.332-14.94-3.888-4.968-8.1-9.648-12.78-14.04-4.859-4.464-14.868-10.656-15.3-11.916-0.36-1.225 3.96 0.288 13.1 4.68z"/>
      <path d="m247.74 53.293c-0.899 0.72-1.188 1.224-0.863 2.34 0.252 1.116 0.504 3.636 2.556 4.5 1.98 0.756 7.02 0.828 9.288 0.36 2.124-0.612 3.672-1.872 3.672-3.24-0.144-1.404-2.34-3.744-4.068-4.788-1.836-1.188-4.68-1.8-6.443-1.692-1.96 0.073-3.29 1.657-4.15 2.52z"/>
      <path d="m251.95 55.202c-0.287 0.36 0.108 1.332 0.612 1.8 0.324 0.288 1.08 0.288 1.729 0.288 0.575-0.144 2.016-0.288 2.088-0.72 0-0.504-1.044-1.512-1.765-1.764-0.87-0.325-2.27 0.035-2.67 0.396z" fill="#fff"/>
      <path d="m161.77 35.005c-1.008 0.36-1.548 0.648-2.304 1.836-0.9 1.044-2.952 3.528-2.844 4.932 0.072 1.404 1.728 3.06 3.024 3.42 1.188 0.216 2.916-0.54 4.068-1.728 1.152-1.44 2.088-4.032 2.52-5.688 0.216-1.584-0.18-3.276-0.9-3.672-0.91-0.576-2.56 0.468-3.57 0.9z"/>
      <path d="m161.66 38.138c-0.468 0.252-1.224 1.224-1.296 1.8-0.144 0.432 0.036 0.72 0.396 0.864 0.216 0.108 0.936 0.396 1.332 0.036 0.36-0.432 0.828-1.764 0.864-2.196-0.14-0.504-0.89-0.721-1.29-0.504z" fill="#fff"/>
      <path d="m361.57 73.633c0.108 1.008 0.181 1.548 1.044 2.736 0.792 1.116 2.376 3.78 3.78 4.248 1.44 0.396 3.349-0.864 4.176-1.836 0.576-1.116 0.504-2.952-0.359-4.392-0.937-1.512-3.276-3.456-4.645-4.176-1.476-0.684-3.096-0.9-3.744-0.252-0.65 0.612-0.5 2.484-0.25 3.672z"/>
      <path d="m364.52 74.677c-0.036 0.468 0.9 1.44 1.296 1.8 0.396 0.252 0.612 0.072 0.937-0.108 0.18-0.324 0.611-0.792 0.468-1.26-0.324-0.576-1.404-1.404-1.836-1.512-0.54-0.035-0.98 0.468-0.87 1.08z" fill="#fff"/>
      <path d="m262.1 6.746s0.972-4.572 3.384-5.688c2.448-1.116 7.416-1.404 10.98-0.9 3.528 0.504 8.532 2.304 10.116 3.924 1.512 1.62 0.432 4.392-0.9 5.652-1.404 1.224-3.276 2.16-7.236 1.692-3.99-0.54-16.34-4.68-16.34-4.68z"/>
      <path d="m264.77 2.498l-1.944 3.528c1.729 0.972 4.177 1.764 7.2 2.664 3.061 0.792 8.208 2.34 10.872 2.304 2.521-0.18 4.896-2.304 4.356-2.916-0.648-0.612-4.933-0.756-7.597-1.008-2.735-0.468-6.191-0.576-8.279-1.296-2.17-0.793-3.75-1.836-4.61-3.276z" fill="#fff"/>
      <path stroke="#000" stroke-width=".036" stroke-miterlimit="10" d="m216.35 11.498c-1.476-1.008-13.752 2.016-21.816 4.356-8.064 2.232-23.4 7.056-25.74 9.18-2.304 1.908 11.34-0.36 11.772 3.06 0.18 3.42-9.792 14.508-10.044 17.424-0.324 2.7 5.04 2.052 8.316-0.432 3.168-2.556 6.984-10.548 10.908-14.4 3.708-3.888 7.776-5.544 12.204-8.712 4.46-3.349 15.51-9.432 14.4-10.476z"/>
    </g>
  </g>
  <metadata>
    <rdfRDF>
      <ccWork>
        <dcFormat>image/svg+xml</dcFormat>
        <dcType rdfResource="http://purl.org/dc/dcmitype/StillImage"/>
        <ccLicense rdfResource="http://creativecommons.org/licenses/publicdomain/"/>
        <dcPublisher>
          <ccAgent rdfAbout="http://openclipart.org/">
            <dcTitle>Openclipart</dcTitle>
          </ccAgent>
        </dcPublisher>
        <dcTitle>Baseball cap</dcTitle>
        <dcDate>2007-11-13T23:24:36</dcDate>
        <dcDescription>ball, baseball, cap, clip art, clipart, clothing, colouring book, hat, sport, </dcDescription>
        <dcSource>http://openclipart.org/detail/8303/baseball-cap-by-gerald_g-8303</dcSource>
        <dcCreator>
          <ccAgent>
            <dcTitle>Gerald_G</dcTitle>
          </ccAgent>
        </dcCreator>
        <dcSubject>
          <rdfBag>
            <rdfLi>ball</rdfLi>
            <rdfLi>baseball</rdfLi>
            <rdfLi>cap</rdfLi>
            <rdfLi>clip art</rdfLi>
            <rdfLi>clipart</rdfLi>
            <rdfLi>clothing</rdfLi>
            <rdfLi>colouring book</rdfLi>
            <rdfLi>hat</rdfLi>
            <rdfLi>sport</rdfLi>
          </rdfBag>
        </dcSubject>
      </ccWork>
      <ccLicense rdfAbout="http://creativecommons.org/licenses/publicdomain/">
        <ccPermits rdfResource="http://creativecommons.org/ns#Reproduction"/>
        <ccPermits rdfResource="http://creativecommons.org/ns#Distribution"/>
        <ccPermits rdfResource="http://creativecommons.org/ns#DerivativeWorks"/>
      </ccLicense>
    </rdfRDF>
  </metadata>
</svg>
