<?xml version="1.0" encoding="iso-8859-1"?>
<!-- Generator: Adobe Illustrator 17.1.0, SVG Export Plug-In . SVG Version: 6.00 Build 0)  -->
<!DOCTYPE svg PUBLIC "-//W3C//DTD SVG 1.1//EN" "http://www.w3.org/Graphics/SVG/1.1/DTD/svg11.dtd">
<svg version="1.1" id="Capa_1" xmlns="http://www.w3.org/2000/svg" xmlns:xlink="http://www.w3.org/1999/xlink" x="0px" y="0px"
	 viewBox="0 0 216.619 216.619" style="enable-background:new 0 0 216.619 216.619;" xml:space="preserve">
<path d="M160.268,178.901c-21.851,0-42.125-12.749-46.479-15.667h-10.638c-6.147,4.119-44.013,27.822-73.256,7.617
	c-10.735-7.417-16.963-18.587-18.305-32.639H3c-1.657,0-3-1.343-3-3s1.343-3,3-3h8.315c0.001-1.244,0.038-2.507,0.109-3.789
	c0.766-13.794,5.26-24.825,5.451-25.288c0.309-0.749,0.907-1.341,1.659-1.642c0.32-0.127,3.458-1.331,8.979-1.746V40.719
	c0-1.657,1.343-3,3-3s3,1.343,3,3v58.933c8.969,0.355,21.625,2.981,37.059,11.801c26.242,14.995,32.73,37.918,34.223,45.781h7.349
	c1.493-7.863,7.981-30.786,34.223-45.781c15.432-8.818,28.09-11.445,37.059-11.801V40.719c0-1.657,1.343-3,3-3s3,1.343,3,3v59.029
	c5.523,0.415,8.659,1.619,8.979,1.746c0.752,0.301,1.35,0.893,1.659,1.642c0.191,0.463,4.685,11.494,5.451,25.288
	c0.071,1.282,0.107,2.545,0.109,3.789h7.995c1.657,0,3,1.343,3,3s-1.343,3-3,3h-8.27c-1.341,14.052-7.569,25.222-18.304,32.639h0
	C178.519,176.741,169.26,178.9,160.268,178.901z M117.971,158.786c7.492,4.768,41.002,24.167,65.664,7.128l1.705,2.468l-1.705-2.468
	c24.802-17.136,13.924-52.066,11.367-59.203c-4.442-1.161-21.204-4.023-45.658,9.951
	C124.812,130.68,119.125,152.523,117.971,158.786z M21.944,106.697c-2.538,7.109-13.408,42.104,11.36,59.217
	c7.265,5.019,15.302,6.876,23.211,6.877c18.933,0.002,37.153-10.635,42.447-14.002c-1.178-6.268-6.936-28.167-31.367-42.127
	c-16.115-9.209-28.786-11.14-36.872-11.047c-0.107,0.007-0.218,0.01-0.327,0.005C26.305,105.698,23.436,106.295,21.944,106.697z
	 M55.733,166.586c-6.596,0-15.312-1.69-22.517-8.896c-13.12-13.119-8.855-38.404-8.667-39.474c0.287-1.632,1.842-2.724,3.474-2.436
	c1.631,0.287,2.721,1.84,2.436,3.471l0,0c-0.04,0.232-3.905,23.292,7,34.195c10.765,10.765,26.34,6.135,26.497,6.088
	c1.585-0.486,3.263,0.401,3.75,1.985c0.487,1.583-0.401,3.262-1.985,3.75C65.364,165.38,61.305,166.586,55.733,166.586z"/>
<g>
</g>
<g>
</g>
<g>
</g>
<g>
</g>
<g>
</g>
<g>
</g>
<g>
</g>
<g>
</g>
<g>
</g>
<g>
</g>
<g>
</g>
<g>
</g>
<g>
</g>
<g>
</g>
<g>
</g>
</svg>
