<?xml version="1.0" encoding="iso-8859-1"?>
<!-- Generator: Adobe Illustrator 19.0.0, SVG Export Plug-In . SVG Version: 6.00 Build 0)  -->
<svg version="1.1" id="Layer_1" xmlns="http://www.w3.org/2000/svg" xmlns:xlink="http://www.w3.org/1999/xlink" x="0px" y="0px"
	 viewBox="0 0 512 512" style="enable-background:new 0 0 512 512;" xml:space="preserve">
<g>
	<g>
		
			<rect x="161.032" y="354.229" transform="matrix(0.8944 -0.4472 0.4472 0.8944 -146.7535 123.6348)" width="54.907" height="36.833"/>
	</g>
</g>
<g>
	<g>
		<path d="M507.914,293.919l-80.255-169.425c-14.392-30.387-44.588-50.548-77.914-52.496l-49.282-49.282h-88.925l-49.283,49.282
			c-33.328,1.949-63.522,22.109-77.914,52.496L4.086,293.919c-9.932,20.964-1.132,46.459,19.618,56.834l30.204,15.102
			c12.78,7.017,34.633,6.922,48.618-7.061v87.517c0,23.695,19.278,42.973,42.973,42.973h221.006
			c23.695,0,42.973-19.278,42.973-42.973v-87.517c13.985,13.985,35.837,14.079,48.618,7.061l30.204-15.102
			C509.046,340.378,517.845,314.884,507.914,293.919z M237.583,452.45h-92.086c-3.385,0-6.139-2.754-6.139-6.139V208.679
			L78.615,330.165c-2.182,4.058-6.257,3.735-8.236,2.744l-30.204-15.102c-2.964-1.482-4.221-5.124-2.802-8.118l80.256-169.427
			c4.995-10.544,13.162-19.031,23.028-24.546c8.115,37.557,42.084,70.299,96.927,77.757V452.45z M237.583,156.261
			c-34.277-4.726-57.298-29.282-60.619-46.879l49.831-49.831h58.412l49.831,49.831c-3.321,17.596-26.343,42.152-60.619,46.879
			v-21.552l38.324-38.324H199.26l38.324,38.324V156.261z M471.825,317.807l-30.204,15.102c-1.979,0.99-6.054,1.313-8.236-2.744
			l-60.743-121.486v237.631c0,3.385-2.754,6.139-6.139,6.139h-92.086V193.472c54.843-7.458,88.811-40.198,96.926-77.757
			c9.865,5.515,18.033,14.003,23.028,24.546l80.256,169.427C476.045,312.684,474.789,316.325,471.825,317.807z"/>
	</g>
</g>
<g>
	<g>
		
			<rect x="305.111" y="345.201" transform="matrix(0.4472 -0.8944 0.8944 0.4472 -154.4707 495.3707)" width="36.833" height="54.907"/>
	</g>
</g>
<g>
</g>
<g>
</g>
<g>
</g>
<g>
</g>
<g>
</g>
<g>
</g>
<g>
</g>
<g>
</g>
<g>
</g>
<g>
</g>
<g>
</g>
<g>
</g>
<g>
</g>
<g>
</g>
<g>
</g>
</svg>
