<?xml version="1.0" standalone="no"?>
<!DOCTYPE svg PUBLIC "-//W3C//DTD SVG 20010904//EN"
 "http://www.w3.org/TR/2001/REC-SVG-20010904/DTD/svg10.dtd">
<svg version="1.0" xmlns="http://www.w3.org/2000/svg"
 width="460.000000pt" height="345.000000pt" viewBox="0 0 460.000000 345.000000"
 preserveAspectRatio="xMidYMid meet">

<g transform="translate(0.000000,345.000000) scale(0.100000,-0.100000)"
fill="#000000" stroke="none">
<path d="M3985 2945 c-14 -6 -525 -41 -930 -65 -187 -11 -371 -27 -410 -36
-40 -8 -167 -19 -300 -24 -126 -5 -291 -17 -365 -25 -165 -19 -702 -37 -900
-30 -80 3 -221 14 -315 25 -93 11 -217 19 -275 18 l-105 -1 140 -8 c77 -4 196
-15 265 -24 160 -22 643 -31 910 -16 107 6 290 20 405 31 116 11 262 20 325
20 70 0 159 8 225 19 62 11 230 27 385 36 343 19 645 41 865 61 94 9 193 14
220 11 32 -4 43 -2 30 3 -20 8 -151 12 -170 5z"/>
<path d="M4257 2943 c-4 -3 -24 -9 -44 -13 -35 -7 -35 -8 -8 -8 17 -1 41 5 55
13 14 8 20 14 14 15 -6 0 -14 -3 -17 -7z"/>
<path d="M4333 2943 c9 -2 23 -2 30 0 6 3 -1 5 -18 5 -16 0 -22 -2 -12 -5z"/>
<path d="M4350 2849 c-77 -15 -124 -18 -175 -13 -101 9 -172 10 -240 2 -63 -8
-522 -39 -855 -58 -107 -7 -267 -21 -355 -31 -88 -11 -250 -24 -360 -29 -110
-5 -265 -16 -345 -25 -342 -36 -939 -44 -1165 -16 -44 6 -170 18 -280 26 -110
8 -256 22 -325 30 -69 8 -147 14 -175 14 -28 -1 17 -9 105 -20 150 -17 229
-25 505 -50 72 -6 141 -13 155 -14 292 -33 814 -31 1150 4 107 11 287 25 400
31 223 11 304 18 335 26 17 4 18 3 4 -5 -9 -6 -56 -13 -105 -17 -49 -3 -92 -8
-97 -11 -4 -2 -56 -7 -115 -9 -254 -10 -292 -13 -300 -18 -5 -3 -44 -7 -88
-10 -43 -3 -121 -10 -174 -15 -90 -10 -363 -25 -405 -23 -11 1 -92 2 -180 2
-88 1 -177 5 -197 10 -25 5 -38 4 -38 -2 0 -7 -4 -7 -12 -1 -18 14 -74 10 -71
-5 2 -7 -2 -12 -7 -12 -9 0 -14 14 -11 32 1 10 -63 -3 -67 -14 -2 -4 -8 -8
-14 -8 -6 0 -7 7 -4 16 4 12 1 14 -14 9 -11 -4 -20 -2 -20 4 0 14 -27 14 -32
1 -2 -6 -17 -6 -43 1 -29 8 -40 8 -43 0 -2 -6 -9 -11 -15 -11 -5 0 -7 3 -3 7
11 12 -85 32 -154 33 -36 0 -92 3 -125 6 -33 2 -71 5 -84 4 -13 0 -30 5 -37
11 -7 6 -22 8 -34 4 -12 -4 -27 -2 -34 4 -7 6 -26 10 -42 9 -16 -1 -59 2 -96
7 l-68 8 0 -32 0 -32 45 7 c25 3 53 3 62 -2 14 -6 7 -10 -27 -15 -38 -5 -34
-6 27 -6 67 1 74 -1 93 -26 26 -33 40 -35 40 -6 0 20 3 21 53 15 94 -12 152
-23 130 -25 -13 0 -23 -6 -23 -11 0 -7 38 -8 111 -4 92 6 110 5 107 -7 -3 -15
22 -17 57 -4 16 5 17 5 5 -4 -19 -13 -9 -14 25 -1 18 7 24 7 20 -1 -4 -6 2 -9
17 -8 12 1 52 1 87 1 52 -2 62 -5 57 -17 -3 -8 -1 -15 4 -15 6 0 10 7 10 17 0
9 3 13 8 9 4 -4 7 -37 7 -72 0 -35 -2 -59 -3 -54 -2 6 -8 8 -13 4 -5 -3 -5
-13 -1 -22 8 -15 5 -128 -12 -558 l-6 -131 24 4 c13 3 29 -2 37 -9 9 -11 24
-13 52 -8 21 4 55 4 75 0 20 -5 111 -11 201 -14 174 -6 227 -15 95 -17 -385
-5 -871 14 -842 32 9 6 4 9 -14 9 -19 0 -28 -5 -28 -16 0 -11 -5 -14 -16 -10
-9 3 -21 6 -27 7 -7 0 -3 4 8 9 15 6 12 8 -16 7 -21 -1 -35 -6 -32 -13 3 -7
-17 -8 -64 -2 -37 5 -81 9 -96 10 -27 1 -51 18 -26 18 7 0 9 3 6 6 -4 4 -18
-1 -33 -11 -20 -13 -26 -14 -22 -4 5 11 -10 13 -78 11 l-84 -3 0 -58 0 -58 50
2 c28 1 53 -2 56 -7 3 -5 10 -5 16 -2 7 5 8 2 4 -5 -5 -7 -19 -10 -35 -6 -15
3 -38 1 -52 -4 -16 -7 -19 -10 -7 -10 9 -1 29 -6 43 -13 18 -8 22 -14 13 -20
-7 -4 -17 -8 -23 -8 -5 0 -5 4 2 8 6 4 -6 7 -27 7 -138 0 188 -45 700 -97 183
-18 286 -23 548 -23 l322 0 0 -56 0 -56 -158 -6 c-162 -6 -504 5 -722 23 -69
6 -246 21 -395 35 -148 14 -285 26 -303 28 l-32 3 0 -423 c1 -280 4 -423 11
-423 6 0 8 -4 5 -8 -3 -5 11 -15 30 -24 18 -9 34 -12 34 -8 0 5 -12 13 -27 19
-72 29 87 -21 222 -69 17 -6 39 -13 50 -16 11 -2 40 -10 64 -17 40 -12 43 -15
25 -25 -15 -9 5 -11 91 -10 l110 2 -90 6 -90 6 114 2 c86 2 135 -3 205 -20 50
-11 85 -23 78 -25 -6 -3 -9 -9 -6 -14 4 -6 11 -6 19 1 10 8 25 8 53 1 81 -22
247 -48 427 -67 l70 -7 -45 -9 c-27 -5 -63 -4 -90 1 -25 6 -65 13 -90 16 -87
10 -7 -12 100 -29 122 -18 268 -29 230 -16 -14 4 -54 9 -90 10 l-65 3 45 7
c25 4 65 4 90 -2 24 -5 80 -10 123 -10 45 -1 73 -5 65 -9 -8 -5 -1 -7 17 -5
45 6 85 -4 85 -21 0 -8 16 -31 35 -50 37 -37 39 -45 35 -130 l-2 -53 41 0 41
0 -1 73 c-2 102 -1 107 20 107 11 0 23 5 26 10 3 6 1 10 -5 10 -6 0 -8 5 -5
11 4 6 13 8 21 5 7 -3 17 0 21 7 14 21 50 36 74 31 20 -4 20 -3 5 4 -30 13
155 67 368 106 104 19 192 35 195 34 3 -1 13 1 21 4 8 4 80 22 160 42 80 20
156 39 169 42 18 5 22 4 16 -6 -5 -8 -3 -11 6 -8 8 3 13 11 11 18 -2 8 5 11
22 8 14 -3 23 -2 21 3 -3 4 9 11 27 14 18 4 39 12 45 17 7 6 20 8 28 4 8 -3
15 -2 15 3 0 8 9 10 54 14 13 1 22 5 20 9 -5 7 54 23 73 20 6 -2 29 6 50 17
50 26 150 54 188 53 18 -1 25 2 17 6 -15 10 89 45 110 37 8 -3 25 -1 39 5 24
10 24 10 -3 5 -38 -7 -35 1 5 13 155 46 143 45 177 27 18 -9 34 -14 38 -11 3
3 0 6 -6 6 -7 0 -12 7 -12 15 0 9 -6 12 -17 9 -16 -5 -15 -4 1 6 10 7 118 43
240 81 121 38 235 74 251 80 17 6 39 12 50 13 11 1 32 10 46 19 18 12 37 16
63 12 36 -6 52 9 19 18 -16 4 -16 5 -1 6 15 1 17 26 18 286 l0 285 -42 0 c-24
0 -137 -9 -253 -20 -115 -11 -291 -27 -390 -35 -99 -8 -205 -17 -235 -20 -230
-22 -438 -37 -960 -70 -47 -3 -113 -8 -147 -11 l-63 -6 0 56 c0 50 2 56 23 61
12 2 171 14 352 25 352 22 796 61 1275 112 401 42 418 45 283 44 -61 -1 -105
-3 -97 -6 9 -3 -48 -12 -125 -19 -127 -12 -187 -10 -246 6 -11 3 -17 2 -13 -2
4 -5 25 -11 45 -15 35 -7 36 -8 8 -9 -16 0 -51 6 -78 14 -31 9 -55 11 -70 5
-23 -9 -20 -11 41 -16 66 -5 39 -11 -110 -23 -115 -10 -153 -10 -156 -1 -3 7
-8 6 -16 -4 -10 -13 -170 -29 -521 -51 -44 -3 -109 -7 -145 -10 -117 -10 -297
-13 -310 -5 -7 4 -10 12 -7 17 3 5 -4 10 -16 10 -12 1 -17 -1 -12 -5 6 -4 16
-15 24 -25 12 -16 12 -17 -5 -11 -10 4 -25 12 -32 17 -9 7 -11 6 -6 -7 5 -13
0 -16 -25 -16 -17 0 -31 4 -31 8 0 11 29 37 50 46 8 3 5 4 -7 2 -13 -2 -23 0
-23 5 0 5 4 9 10 9 5 0 18 10 30 22 15 17 30 21 62 20 24 -2 66 4 93 13 33 10
92 15 172 15 67 0 124 4 128 10 3 5 31 8 63 6 31 -1 107 3 167 10 61 7 179 18
263 23 84 6 157 13 162 16 5 3 56 10 113 15 58 5 118 12 133 15 22 5 25 4 14
-4 -12 -9 -10 -11 11 -11 14 0 30 5 36 11 8 8 13 8 17 0 4 -6 12 -11 17 -11 6
0 7 5 4 10 -3 6 0 10 7 11 7 0 28 2 47 5 21 3 38 -1 43 -8 6 -10 8 -10 8 0 0
14 156 18 162 3 2 -5 24 -5 53 1 28 5 84 9 125 9 56 1 68 3 45 9 -28 7 -28 8
13 9 40 1 42 3 42 31 0 28 -3 30 -35 30 -19 0 -35 5 -35 10 0 7 15 9 38 6 29
-4 32 -4 12 3 l-25 9 25 2 25 2 -25 8 c-14 4 -34 8 -45 8 -15 0 -14 -2 5 -7
41 -11 -88 -35 -147 -27 -37 5 -44 4 -33 -4 11 -9 -2 -10 -55 -7 -44 4 -61 2
-45 -3 23 -7 22 -8 -12 -9 -20 -1 -40 -6 -43 -11 -4 -7 -11 -8 -18 -2 -15 12
-149 -6 -159 -22 -5 -8 -8 -7 -8 2 0 13 -17 12 -175 -4 -38 -4 -72 -10 -75
-14 -3 -4 -21 -1 -40 7 -34 13 -34 13 -5 9 17 -3 36 -1 43 2 6 4 -12 9 -39 10
-38 2 -50 -1 -46 -10 3 -9 -8 -14 -32 -16 -20 -1 -61 -4 -91 -7 -67 -6 -254
-11 -240 -7 5 2 10 12 10 22 0 10 6 20 14 23 18 7 15 49 -4 54 -13 4 -13 3 0
-6 8 -5 11 -13 7 -18 -13 -12 -27 20 -15 34 10 13 9 25 -12 126 -17 86 -22
267 -10 386 10 95 10 124 -1 161 -7 25 -13 51 -14 59 0 8 -6 16 -13 19 -19 6
-14 20 11 25 l22 4 -22 2 c-13 0 -23 5 -23 10 0 5 10 9 23 9 12 0 51 5 87 10
36 5 90 9 122 8 32 -1 54 3 50 8 -3 5 2 6 11 3 53 -21 52 -21 40 -6 -10 12 3
14 90 13 142 -1 149 -2 141 -16 -4 -7 -3 -8 5 -4 6 4 9 11 6 16 -7 11 37 19
108 19 53 0 57 -1 47 -18 -9 -17 -7 -18 14 -8 17 8 21 14 13 19 -7 5 0 8 16 8
16 0 26 -4 22 -10 -3 -5 -1 -10 4 -10 6 0 11 4 11 9 0 11 48 21 52 10 2 -4 28
-5 58 -1 30 4 119 7 197 7 79 0 143 3 143 8 0 4 16 7 35 7 34 0 35 1 35 40 l0
40 -72 -1 c-40 0 -120 -10 -178 -20z m-245 -21 c11 -1 -9 -4 -45 -7 -36 -4
-69 -4 -75 -1 -13 7 55 19 80 14 11 -2 29 -5 40 -6z m232 -4 c-3 -3 -12 -4
-19 -1 -8 3 -5 6 6 6 11 1 17 -2 13 -5z m-447 -15 c-299 -35 -570 -52 -570
-36 0 5 29 7 65 5 36 -1 65 0 65 3 0 4 64 10 143 14 78 4 171 11 207 15 36 4
88 7 115 7 41 0 36 -1 -25 -8z m-610 -47 c0 -4 -37 -9 -82 -10 -46 -1 -116 -7
-156 -13 -40 -6 -87 -7 -104 -4 -20 5 -28 4 -24 -3 4 -7 -16 -11 -61 -10 -38
1 -76 -2 -85 -6 -11 -5 -18 -4 -18 2 0 17 29 22 144 28 61 3 152 9 201 13 125
11 185 12 185 3z m-106 -71 c3 -5 -18 -12 -46 -16 -29 -4 -57 -11 -63 -15 -5
-4 -26 -10 -45 -13 -19 -4 -71 -13 -115 -22 -44 -8 -101 -15 -127 -15 -27 0
-48 -3 -48 -7 0 -5 -12 -8 -27 -8 -16 -1 -50 -4 -78 -7 -90 -12 -372 -19 -350
-9 18 9 17 10 -10 11 -28 1 -29 2 -8 10 13 5 121 14 240 19 120 6 243 15 273
19 30 5 76 8 102 7 26 -2 45 1 42 6 -3 5 1 10 8 10 7 1 24 3 38 4 14 1 34 6
44 10 14 6 17 5 12 -3 -5 -8 0 -12 12 -12 11 0 23 7 26 16 4 12 14 15 34 11
15 -2 36 -1 47 3 27 11 33 12 39 1z m59 -8 c-7 -2 -19 -2 -25 0 -7 3 -2 5 12
5 14 0 19 -2 13 -5z m-2633 -23 c0 -5 -2 -10 -4 -10 -3 0 -8 5 -11 10 -3 6 -1
10 4 10 6 0 11 -4 11 -10z m2624 -23 c16 -12 17 -22 5 -153 -14 -160 -4 -312
33 -490 11 -57 19 -107 16 -109 -6 -7 -201 -32 -383 -50 -241 -24 -541 -34
-1170 -40 -324 -3 -627 -8 -671 -11 l-81 -6 -12 33 c-8 25 -8 47 1 93 7 37 12
147 11 281 0 191 -4 247 -24 325 -3 12 5 14 41 12 435 -26 1203 -39 1355 -23
112 12 454 72 690 121 156 33 166 34 189 17z m-1184 -46 c0 -5 8 -11 18 -14 9
-2 0 -4 -20 -3 -20 1 -40 5 -45 9 -4 5 0 5 10 1 10 -3 17 -1 17 5 0 6 5 11 10
11 6 0 10 -4 10 -9z m126 -7 c-18 -17 -82 -19 -89 -1 -3 8 11 12 49 14 46 1
52 -1 40 -13z m-211 -3 c19 -5 -4 -7 -60 -8 -65 0 -79 2 -50 7 51 9 73 9 110
1z m-939 -24 c2 -2 -12 -4 -31 -5 -19 -1 -35 3 -35 8 0 8 57 6 66 -3z m712 6
c-21 -2 -55 -2 -75 0 -21 2 -4 4 37 4 41 0 58 -2 38 -4z m782 -776 c0 -2 -7
-50 -17 -108 -11 -71 -16 -173 -17 -324 l-1 -220 -70 -12 c-150 -28 -386 -55
-517 -60 -151 -6 -217 7 -239 49 -6 12 -15 114 -20 227 -5 113 -13 256 -18
316 -5 61 -7 112 -4 115 3 3 199 8 436 11 238 3 440 6 450 7 9 1 17 1 17 -1z
m-2161 -177 c138 -24 303 -30 1081 -42 25 0 50 1 55 2 6 1 20 2 32 1 20 -1 23
-6 20 -36 -1 -19 -6 -35 -11 -35 -6 0 -1 -6 10 -14 18 -14 18 -15 -9 -21 -46
-12 -607 2 -772 18 -82 9 -188 19 -235 23 -47 4 -77 10 -67 13 10 4 -12 7 -50
6 -106 0 -284 23 -297 39 -6 7 -20 19 -31 25 -17 10 -16 11 12 6 21 -4 35 -1
45 9 16 18 131 21 217 6z m2163 -414 c2 -40 -1 -70 -7 -72 -6 -3 -11 68 -12
199 -1 197 -1 199 7 72 5 -71 10 -161 12 -199z m-108 -188 c-4 -7 -3 -8 4 -4
7 4 17 4 24 0 15 -10 -88 -43 -113 -37 -20 6 -27 23 -8 23 5 0 7 5 3 11 -5 8
0 10 17 6 13 -3 31 -2 39 3 21 14 43 12 34 -2z m-234 -8 c-17 -11 -15 -11 36
-12 21 -1 40 5 45 13 7 11 9 11 9 -3 0 -12 5 -15 17 -11 11 4 14 3 9 -5 -4 -7
-3 -12 3 -12 6 0 8 -7 5 -15 -6 -14 -8 -13 -19 2 -11 15 -13 15 -24 -5 -9 -16
-9 -28 -1 -42 6 -11 8 -25 5 -30 -11 -18 -14 -126 -4 -141 8 -10 9 -9 4 7 -3
12 -2 31 3 43 7 20 10 21 21 7 10 -12 11 -23 2 -47 -14 -39 -14 -49 -1 -49 5
0 7 6 4 14 -4 11 0 13 15 9 21 -5 29 -23 11 -23 -15 0 -12 -56 5 -70 12 -10
14 -8 10 8 -3 15 1 18 20 15 12 -3 26 0 29 6 11 18 25 13 23 -9 -1 -21 -9 -25
-70 -36 -22 -4 -35 -9 -30 -13 9 -7 9 -9 12 -86 1 -45 4 -55 19 -55 15 -1 15
-2 -3 -16 -19 -14 -20 -13 -26 18 -6 32 -6 31 -8 -9 -1 -49 -26 -61 -37 -18
-3 14 -10 22 -15 20 -16 -11 -47 34 -58 84 -6 29 -16 117 -23 196 -6 79 -15
142 -20 139 -4 -3 -8 20 -8 50 0 54 16 86 43 86 7 0 6 -4 -3 -10z m-493 -26
c-3 -3 -12 -4 -19 -1 -8 3 -5 6 6 6 11 1 17 -2 13 -5z m759 -3 c-4 -5 0 -12 6
-15 7 -4 3 -4 -9 -2 -13 2 -23 0 -23 -5 0 -11 -43 -12 -54 -2 -4 4 12 12 36
19 24 6 44 12 46 13 2 0 1 -3 -2 -8z m-493 -63 c2 -35 6 -70 7 -78 2 -8 2 -70
2 -137 -2 -91 -5 -123 -14 -123 -9 0 -13 -22 -14 -75 -1 -57 -6 -80 -19 -95
-13 -14 -22 -17 -31 -10 -6 6 -36 9 -66 8 l-53 -3 1 63 c0 34 -3 62 -8 62 -4
0 -8 -4 -8 -9 0 -5 -10 -7 -22 -3 -21 5 -21 6 7 16 25 9 30 17 30 42 0 21 -4
30 -12 27 -13 -5 -17 -17 -14 -40 1 -11 -36 -29 -45 -21 -2 3 5 14 16 26 26
27 25 31 -2 26 -13 -2 -5 3 18 11 l41 16 -3 111 c-2 61 -8 116 -14 122 -7 7
-10 1 -10 -19 0 -21 -3 -26 -11 -18 -8 8 -8 17 -1 30 13 24 5 36 -36 53 -24 9
-30 15 -20 21 19 13 28 11 28 -6 0 -8 5 -15 12 -15 6 0 20 -7 30 -17 17 -15
18 -15 19 3 0 10 2 29 3 40 3 22 -8 25 -33 10 -11 -7 -11 -10 0 -17 10 -6 10
-9 2 -9 -19 0 -27 21 -12 32 10 6 3 7 -21 3 l-35 -6 26 15 c21 12 34 13 64 5
41 -12 155 -3 155 12 0 5 9 9 19 9 16 0 20 -9 24 -62z m323 37 c-3 -9 1 -18
10 -22 8 -3 13 -12 10 -19 -3 -8 1 -14 9 -14 8 0 15 6 15 14 0 23 36 25 70 3
29 -19 31 -22 14 -28 -15 -6 -13 -8 11 -10 28 -2 28 -2 5 -6 -14 -3 -29 -9
-34 -14 -6 -5 -21 -9 -35 -9 -21 0 -23 -2 -11 -10 13 -9 13 -10 0 -10 -11 -1
-10 -4 5 -17 16 -13 17 -15 3 -10 -10 4 -18 2 -18 -3 0 -6 15 -10 33 -10 24 0
28 -3 17 -10 -12 -8 -13 -12 -2 -19 11 -6 10 -10 -3 -15 -9 -3 -24 -6 -33 -6
-15 0 -15 2 -2 10 13 9 13 10 0 11 -10 0 -8 3 5 9 16 7 17 9 3 9 -24 1 -32 19
-29 68 1 25 -3 43 -9 43 -5 0 -10 -16 -10 -35 0 -19 -4 -35 -10 -35 -5 0 -10
6 -10 13 0 8 -4 7 -10 -3 -8 -11 -9 -7 -4 15 3 17 8 36 10 43 2 7 -1 22 -6 32
-9 17 -4 50 7 50 3 0 2 -7 -1 -15z m64 11 c0 -3 -4 -8 -10 -11 -5 -3 -10 -1
-10 4 0 6 5 11 10 11 6 0 10 -2 10 -4z m94 -31 c-4 -8 -1 -15 7 -15 7 0 9 -3
6 -6 -9 -9 -38 16 -31 27 9 15 24 10 18 -6z m-724 -70 c10 -13 9 -15 -8 -15
-15 0 -20 5 -16 15 4 8 7 15 9 15 1 0 8 -7 15 -15z m723 -35 c-3 -11 -10 -20
-15 -20 -5 0 -7 4 -4 9 4 5 -4 7 -16 4 -22 -4 -23 -4 -4 11 27 22 45 20 39 -4z
m-721 -15 c8 -11 1 -25 -13 -25 -6 0 -7 4 -4 10 3 6 -1 7 -9 4 -11 -4 -16 0
-16 10 0 18 30 19 42 1z m38 -36 c0 -5 -4 -9 -10 -9 -5 0 -10 7 -10 16 0 8 5
12 10 9 6 -3 10 -10 10 -16z m675 -10 c-10 -15 -25 -10 -19 6 4 8 10 12 15 9
5 -3 7 -10 4 -15z m-725 -19 c-8 -5 -22 -10 -30 -10 -13 0 -13 1 0 10 8 5 22
10 30 10 13 0 13 -1 0 -10z m727 -25 c0 -8 -6 -15 -14 -15 -14 0 -17 12 -6 23
11 11 20 8 20 -8z m-684 -15 c3 -11 2 -20 -3 -20 -4 0 -5 -11 -3 -25 5 -23 4
-24 -28 -15 -19 6 -36 10 -39 10 -3 1 6 8 20 16 14 8 18 13 10 11 -8 -2 -21 2
-28 9 -10 11 -10 14 0 15 18 2 21 1 41 -6 9 -4 17 -3 17 3 0 6 -8 13 -17 15
-14 4 -14 5 3 6 14 1 24 -6 27 -19z m632 -30 c-3 -5 -12 -10 -18 -10 -7 0 -6
4 3 10 19 12 23 12 15 0z m45 -64 c0 -11 -19 -15 -25 -6 -3 5 1 10 9 10 9 0
16 -2 16 -4z m-33 -32 c-9 -9 -28 6 -21 18 4 6 10 6 17 -1 6 -6 8 -13 4 -17z
m3 -33 c0 -12 -15 -27 -32 -34 -19 -7 -34 33 -17 44 13 7 49 0 49 -10z m-2095
-31 c3 -6 -1 -7 -9 -4 -18 7 -21 14 -7 14 6 0 13 -4 16 -10z"/>
<path d="M2940 2650 c0 -5 5 -10 10 -10 6 0 10 5 10 10 0 6 -4 10 -10 10 -5 0
-10 -4 -10 -10z"/>
<path d="M3162 2520 c0 -19 2 -27 5 -17 2 9 2 25 0 35 -3 9 -5 1 -5 -18z"/>
<path d="M3162 2430 c0 -19 2 -27 5 -17 2 9 2 25 0 35 -3 9 -5 1 -5 -18z"/>
<path d="M1001 2445 c1 -19 18 -51 18 -35 0 8 -4 22 -9 30 -5 8 -9 11 -9 5z"/>
<path d="M1022 2340 c0 -19 2 -27 5 -17 2 9 2 25 0 35 -3 9 -5 1 -5 -18z"/>
<path d="M3162 2340 c0 -19 2 -27 5 -17 2 9 2 25 0 35 -3 9 -5 1 -5 -18z"/>
<path d="M1021 2273 c0 -5 4 -17 9 -28 8 -18 9 -17 9 8 1 15 -3 27 -9 27 -5 0
-10 -3 -9 -7z"/>
<path d="M3162 2250 c0 -19 2 -27 5 -17 2 9 2 25 0 35 -3 9 -5 1 -5 -18z"/>
<path d="M1032 2165 c0 -16 2 -22 5 -12 2 9 2 23 0 30 -3 6 -5 -1 -5 -18z"/>
<path d="M3170 2160 c0 -16 4 -30 8 -30 5 0 7 14 4 30 -2 17 -6 30 -8 30 -2 0
-4 -13 -4 -30z"/>
<path d="M1028 2085 c-3 -14 -1 -25 3 -25 5 0 9 11 9 25 0 14 -2 25 -4 25 -2
0 -6 -11 -8 -25z"/>
<path d="M3188 2065 c2 -14 6 -25 8 -25 2 0 4 11 4 25 0 14 -4 25 -9 25 -4 0
-6 -11 -3 -25z"/>
<path d="M1022 1995 c0 -16 2 -22 5 -12 2 9 2 23 0 30 -3 6 -5 -1 -5 -18z"/>
<path d="M3211 1983 c-1 -12 4 -25 9 -28 12 -7 12 2 0 30 -8 19 -9 19 -9 -2z"/>
<path d="M1005 1910 c-4 -12 -5 -24 -2 -27 3 -2 8 5 12 17 4 12 5 24 2 27 -3
2 -8 -5 -12 -17z"/>
<path d="M1950 1679 c0 -5 5 -7 10 -4 6 3 10 8 10 11 0 2 -4 4 -10 4 -5 0 -10
-5 -10 -11z"/>
<path d="M2106 1657 c-12 -9 -17 -23 -14 -47 3 -32 6 -35 37 -35 22 0 36 6 39
15 5 13 3 13 -11 1 -18 -14 -47 -9 -47 9 0 5 13 10 29 10 39 0 47 14 21 40
-24 24 -30 24 -54 7z m49 -22 c0 -5 -10 -11 -22 -13 -16 -2 -23 2 -23 13 0 11
7 15 23 13 12 -2 22 -7 22 -13z"/>
<path d="M1860 1645 c-15 -19 3 -45 31 -45 10 0 21 -5 24 -10 10 -16 -23 -24
-40 -10 -17 14 -31 8 -20 -9 9 -16 61 -13 74 3 15 17 -10 46 -40 46 -10 0 -19
5 -19 11 0 8 11 9 31 5 27 -5 30 -4 19 9 -16 19 -44 19 -60 0z"/>
<path d="M1950 1610 c0 -27 5 -50 10 -50 6 0 10 23 10 50 0 28 -4 50 -10 50
-5 0 -10 -22 -10 -50z"/>
<path d="M1990 1649 c0 -5 8 -9 18 -8 32 3 33 -1 8 -34 -15 -19 -26 -37 -26
-40 0 -7 81 1 89 8 2 3 -10 5 -29 5 l-32 0 26 34 c14 19 26 37 26 40 0 3 -18
6 -40 6 -22 0 -40 -5 -40 -11z"/>
<path d="M2286 1444 c-16 -16 -22 -54 -8 -54 4 0 12 10 17 23 6 12 19 22 30
22 35 0 29 -34 -14 -80 -23 -25 -41 -49 -41 -55 0 -7 21 -10 55 -8 30 2 55 7
55 13 0 5 -19 8 -43 7 l-42 -3 43 39 c23 22 42 49 42 60 0 27 -26 52 -55 52
-13 0 -31 -7 -39 -16z"/>
<path d="M2146 1434 c-18 -17 -21 -44 -6 -44 5 0 14 9 20 20 13 24 38 26 47 4
4 -11 -2 -23 -17 -34 l-24 -18 25 -4 c33 -4 35 -51 1 -56 -13 -2 -25 3 -28 12
-6 15 -34 23 -34 10 0 -24 24 -44 55 -44 55 0 86 50 50 80 -11 9 -13 16 -5 24
24 24 -4 66 -45 66 -13 0 -31 -7 -39 -16z"/>
<path d="M1892 1376 c-17 -30 -32 -59 -32 -65 0 -6 18 -11 40 -11 33 0 40 -3
40 -20 0 -11 5 -20 10 -20 6 0 10 11 10 25 0 14 5 25 10 25 6 0 10 5 10 11 0
5 -4 8 -9 5 -5 -3 -12 19 -16 49 -4 32 -11 55 -18 55 -7 0 -27 -24 -45 -54z
m38 -21 c0 -31 -3 -35 -25 -35 l-24 0 20 35 c12 19 23 35 25 35 2 0 4 -16 4
-35z"/>
<path d="M1742 1408 c-14 -14 -16 -48 -3 -48 5 0 13 9 16 21 5 14 14 19 28 17
29 -4 34 -34 8 -43 -28 -8 -27 -23 2 -27 32 -4 31 -52 -1 -56 -13 -2 -25 3
-28 12 -3 9 -12 16 -20 16 -17 0 -17 -5 -4 -31 14 -25 60 -25 91 0 21 17 22
21 10 47 -8 16 -14 45 -15 64 -1 33 -3 35 -36 38 -19 2 -41 -3 -48 -10z"/>
<path d="M2070 1379 c-11 -19 -13 -20 -30 -4 -29 26 -45 14 -22 -15 l20 -25
-20 -32 c-16 -27 -17 -33 -5 -33 8 0 22 10 30 23 l16 22 16 -22 c15 -21 45
-32 45 -16 0 4 -12 19 -26 34 l-26 28 21 30 c18 25 19 31 7 31 -8 0 -20 -9
-26 -21z"/>
<path d="M158 1593 c6 -2 18 -2 25 0 6 3 1 5 -13 5 -14 0 -19 -2 -12 -5z"/>
<path d="M125 1580 c-3 -5 -1 -10 4 -10 6 0 11 5 11 10 0 6 -2 10 -4 10 -3 0
-8 -4 -11 -10z"/>
<path d="M196 1565 c4 -8 16 -14 28 -14 16 1 17 2 4 6 -10 2 -18 9 -18 14 0 5
-4 9 -10 9 -5 0 -7 -7 -4 -15z"/>
<path d="M303 1568 c-32 -15 -29 -25 5 -20 16 2 29 10 29 18 0 16 -4 16 -34 2z"/>
<path d="M155 1560 c3 -5 8 -10 11 -10 2 0 4 5 4 10 0 6 -5 10 -11 10 -5 0 -7
-4 -4 -10z"/>
<path d="M720 1550 c0 -5 5 -10 10 -10 6 0 10 5 10 10 0 6 -4 10 -10 10 -5 0
-10 -4 -10 -10z"/>
<path d="M1315 1550 c-8 -13 15 -13 35 0 12 8 11 10 -7 10 -12 0 -25 -4 -28
-10z"/>
<path d="M818 1543 c12 -2 32 -2 45 0 12 2 2 4 -23 4 -25 0 -35 -2 -22 -4z"/>
<path d="M548 1513 c6 -2 18 -2 25 0 6 3 1 5 -13 5 -14 0 -19 -2 -12 -5z"/>
<path d="M645 1511 c4 -3 24 -6 46 -7 50 0 41 9 -12 12 -22 1 -37 -1 -34 -5z"/>
<path d="M750 1510 c8 -5 20 -10 25 -10 6 0 3 5 -5 10 -8 5 -19 10 -25 10 -5
0 -3 -5 5 -10z"/>
<path d="M793 1505 c0 -7 6 -11 14 -8 7 3 13 6 13 8 0 2 -6 5 -13 8 -8 3 -14
-1 -14 -8z"/>
<path d="M878 1503 c7 -3 16 -2 19 1 4 3 -2 6 -13 5 -11 0 -14 -3 -6 -6z"/>
<path d="M895 1490 c-15 -7 -9 -9 25 -9 33 -1 41 2 30 9 -18 12 -28 12 -55 0z"/>
<path d="M1028 1493 c12 -2 32 -2 45 0 12 2 2 4 -23 4 -25 0 -35 -2 -22 -4z"/>
<path d="M1028 1473 c6 -2 18 -2 25 0 6 3 1 5 -13 5 -14 0 -19 -2 -12 -5z"/>
<path d="M1083 1473 c9 -2 23 -2 30 0 6 3 -1 5 -18 5 -16 0 -22 -2 -12 -5z"/>
<path d="M1168 1473 c6 -2 18 -2 25 0 6 3 1 5 -13 5 -14 0 -19 -2 -12 -5z"/>
<path d="M2280 650 c0 -16 4 -30 8 -30 5 0 7 14 4 30 -2 17 -6 30 -8 30 -2 0
-4 -13 -4 -30z"/>
<path d="M2248 633 c7 -3 16 -2 19 1 4 3 -2 6 -13 5 -11 0 -14 -3 -6 -6z"/>
<path d="M2348 633 c7 -3 16 -2 19 1 4 3 -2 6 -13 5 -11 0 -14 -3 -6 -6z"/>
<path d="M2248 613 c7 -3 16 -2 19 1 4 3 -2 6 -13 5 -11 0 -14 -3 -6 -6z"/>
<path d="M2197 590 c-3 -11 -1 -20 4 -20 5 0 9 9 9 20 0 11 -2 20 -4 20 -2 0
-6 -9 -9 -20z"/>
<path d="M2255 593 c11 -3 24 -10 28 -17 6 -7 7 -6 4 4 -2 8 -14 16 -28 17
-19 1 -20 1 -4 -4z"/>
<path d="M1800 890 c-34 -7 -34 -7 -5 -8 17 0 39 3 50 8 24 10 4 10 -45 0z"/>
<path d="M1921 744 c0 -11 3 -14 6 -6 3 7 2 16 -1 19 -3 4 -6 -2 -5 -13z"/>
<path d="M1922 600 c0 -14 2 -19 5 -12 2 6 2 18 0 25 -3 6 -5 1 -5 -13z"/>
<path d="M2350 895 c0 -8 -8 -15 -17 -16 -15 0 -15 -2 2 -9 12 -5 14 -9 6 -9
-8 -1 -12 -3 -10 -6 3 -2 16 -1 29 2 22 6 23 7 4 14 -16 7 -17 8 -1 8 21 1 23
17 2 25 -9 3 -15 0 -15 -9z"/>
<path d="M2271 854 c0 -11 3 -14 6 -6 3 7 2 16 -1 19 -3 4 -6 -2 -5 -13z"/>
<path d="M288 2813 c12 -2 32 -2 45 0 12 2 2 4 -23 4 -25 0 -35 -2 -22 -4z"/>
<path d="M4395 2760 c4 -6 -6 -10 -22 -10 -21 -1 -24 -3 -13 -10 9 -4 31 -5
50 -1 34 7 34 11 -3 24 -11 4 -16 3 -12 -3z"/>
<path d="M3900 2756 c0 -2 7 -7 16 -10 8 -3 12 -2 9 4 -6 10 -25 14 -25 6z"/>
<path d="M3686 2742 c-3 -5 8 -6 25 -4 16 2 29 6 29 8 0 8 -49 4 -54 -4z"/>
<path d="M4114 2738 c9 -5 23 -5 32 0 12 6 7 9 -16 9 -23 0 -28 -3 -16 -9z"/>
<path d="M3768 2733 c6 -2 18 -2 25 0 6 3 1 5 -13 5 -14 0 -19 -2 -12 -5z"/>
<path d="M3340 2660 c0 -5 5 -10 10 -10 6 0 10 5 10 10 0 6 -4 10 -10 10 -5 0
-10 -4 -10 -10z"/>
<path d="M258 2613 c7 -3 16 -2 19 1 4 3 -2 6 -13 5 -11 0 -14 -3 -6 -6z"/>
<path d="M4081 2528 c-1 -21 4 -38 9 -38 12 0 12 27 0 55 -7 16 -9 13 -9 -17z"/>
<path d="M882 2474 c-1 -13 0 -24 2 -24 7 0 14 40 7 44 -4 3 -8 -6 -9 -20z"/>
<path d="M881 2410 c0 -8 4 -22 9 -30 12 -18 12 -2 0 25 -6 13 -9 15 -9 5z"/>
<path d="M3947 2363 c-9 -21 -9 -27 1 -31 6 -2 12 -17 12 -33 0 -16 3 -29 6
-29 14 0 33 36 33 60 0 24 -19 60 -33 60 -3 0 -12 -12 -19 -27z"/>
<path d="M755 2264 c-15 -15 -15 -18 -1 -32 12 -13 18 -13 30 -2 20 16 21 50
2 50 -8 0 -22 -7 -31 -16z"/>
<path d="M3332 2030 c0 -14 2 -19 5 -12 2 6 2 18 0 25 -3 6 -5 1 -5 -13z"/>
<path d="M3345 2000 c-3 -5 -1 -10 4 -10 6 0 11 5 11 10 0 6 -2 10 -4 10 -3 0
-8 -4 -11 -10z"/>
<path d="M4307 1919 c-10 -6 -32 -8 -50 -4 -27 5 -29 4 -14 -6 11 -6 32 -8 48
-5 22 4 28 2 23 -7 -4 -6 -3 -8 1 -4 7 6 17 38 12 37 -1 0 -10 -5 -20 -11z"/>
<path d="M4358 1913 c7 -3 16 -2 19 1 4 3 -2 6 -13 5 -11 0 -14 -3 -6 -6z"/>
<path d="M4403 1903 c9 -2 25 -2 35 0 9 3 1 5 -18 5 -19 0 -27 -2 -17 -5z"/>
<path d="M4208 1893 c7 -3 16 -2 19 1 4 3 -2 6 -13 5 -11 0 -14 -3 -6 -6z"/>
<path d="M4085 1880 c-7 -12 19 -12 55 0 22 7 21 8 -12 9 -20 1 -40 -3 -43 -9z"/>
<path d="M3648 1843 c7 -3 16 -2 19 1 4 3 -2 6 -13 5 -11 0 -14 -3 -6 -6z"/>
<path d="M3808 1843 c7 -3 16 -2 19 1 4 3 -2 6 -13 5 -11 0 -14 -3 -6 -6z"/>
<path d="M3590 1830 c-9 -6 -10 -10 -3 -10 6 0 15 5 18 10 8 12 4 12 -15 0z"/>
<path d="M3418 1823 c7 -3 16 -2 19 1 4 3 -2 6 -13 5 -11 0 -14 -3 -6 -6z"/>
<path d="M138 1813 c7 -3 16 -2 19 1 4 3 -2 6 -13 5 -11 0 -14 -3 -6 -6z"/>
<path d="M578 1803 c12 -2 32 -2 45 0 12 2 2 4 -23 4 -25 0 -35 -2 -22 -4z"/>
<path d="M238 1763 c6 -2 18 -2 25 0 6 3 1 5 -13 5 -14 0 -19 -2 -12 -5z"/>
<path d="M398 1763 c7 -3 16 -2 19 1 4 3 -2 6 -13 5 -11 0 -14 -3 -6 -6z"/>
<path d="M88 1753 c6 -2 18 -2 25 0 6 3 1 5 -13 5 -14 0 -19 -2 -12 -5z"/>
<path d="M304 1753 c15 -4 16 -7 5 -15 -11 -7 -11 -9 -1 -6 20 5 16 23 -5 25
-15 2 -15 1 1 -4z"/>
<path d="M513 1753 c9 -2 25 -2 35 0 9 3 1 5 -18 5 -19 0 -27 -2 -17 -5z"/>
<path d="M4405 1750 l-20 -9 20 0 c11 0 27 4 35 9 13 9 13 10 0 9 -8 0 -24 -4
-35 -9z"/>
<path d="M4560 1750 c9 -6 8 -10 -6 -18 -17 -9 -16 -11 9 -17 15 -4 31 -5 34
-1 4 3 -5 6 -18 6 l-24 0 22 18 23 17 -27 2 c-16 0 -21 -2 -13 -7z"/>
<path d="M4326 1731 c-4 -5 3 -7 14 -4 23 6 26 13 6 13 -8 0 -17 -4 -20 -9z"/>
<path d="M905 1710 c3 -5 8 -10 11 -10 2 0 4 5 4 10 0 6 -5 10 -11 10 -5 0 -7
-4 -4 -10z"/>
<path d="M4428 1713 c7 -3 16 -2 19 1 4 3 -2 6 -13 5 -11 0 -14 -3 -6 -6z"/>
<path d="M3595 1675 c-16 -8 -23 -14 -15 -14 8 0 26 6 40 14 32 18 15 18 -25
0z"/>
<path d="M3664 1678 c-3 -4 11 -8 30 -8 20 0 36 2 36 4 0 8 -61 12 -66 4z"/>
<path d="M3800 1681 c0 -5 9 -7 20 -4 11 3 20 7 20 9 0 2 -9 4 -20 4 -11 0
-20 -4 -20 -9z"/>
<path d="M4078 1683 c12 -2 32 -2 45 0 12 2 2 4 -23 4 -25 0 -35 -2 -22 -4z"/>
<path d="M3758 1663 c7 -3 16 -2 19 1 4 3 -2 6 -13 5 -11 0 -14 -3 -6 -6z"/>
<path d="M3529 1652 c11 -8 11 -10 0 -15 -11 -4 -11 -6 1 -6 8 0 22 4 30 9 9
6 10 10 3 10 -6 0 -20 3 -30 6 -13 4 -15 3 -4 -4z"/>
<path d="M3665 1650 c3 -5 8 -10 11 -10 2 0 4 5 4 10 0 6 -5 10 -11 10 -5 0
-7 -4 -4 -10z"/>
<path d="M3703 1653 c9 -2 23 -2 30 0 6 3 -1 5 -18 5 -16 0 -22 -2 -12 -5z"/>
<path d="M3418 1633 c7 -3 16 -2 19 1 4 3 -2 6 -13 5 -11 0 -14 -3 -6 -6z"/>
<path d="M3038 1603 c7 -3 16 -2 19 1 4 3 -2 6 -13 5 -11 0 -14 -3 -6 -6z"/>
<path d="M3128 1603 c7 -3 16 -2 19 1 4 3 -2 6 -13 5 -11 0 -14 -3 -6 -6z"/>
<path d="M4540 930 c-9 -6 -10 -10 -3 -10 6 0 15 5 18 10 8 12 4 12 -15 0z"/>
<path d="M4378 903 c7 -3 16 -2 19 1 4 3 -2 6 -13 5 -11 0 -14 -3 -6 -6z"/>
<path d="M4328 893 c6 -2 18 -2 25 0 6 3 1 5 -13 5 -14 0 -19 -2 -12 -5z"/>
<path d="M4257 866 c-10 -8 -28 -12 -40 -9 -18 4 -19 3 -7 -7 12 -9 8 -10 -17
-5 -20 4 -34 2 -39 -6 -5 -9 -2 -10 9 -6 10 3 17 2 17 -4 0 -11 23 -6 83 20
20 8 37 19 37 23 0 12 -23 9 -43 -6z"/>
<path d="M4103 822 c-8 -5 1 -8 22 -8 21 0 30 3 22 8 -6 4 -16 8 -22 8 -5 0
-16 -4 -22 -8z"/>
<path d="M3955 770 c3 -5 11 -10 16 -10 6 0 7 5 4 10 -3 6 -11 10 -16 10 -6 0
-7 -4 -4 -10z"/>
<path d="M3865 740 c3 -5 11 -10 16 -10 6 0 7 5 4 10 -3 6 -11 10 -16 10 -6 0
-7 -4 -4 -10z"/>
<path d="M3498 623 c7 -3 16 -2 19 1 4 3 -2 6 -13 5 -11 0 -14 -3 -6 -6z"/>
<path d="M3458 613 c7 -3 16 -2 19 1 4 3 -2 6 -13 5 -11 0 -14 -3 -6 -6z"/>
<path d="M93 510 c-35 -14 -27 -20 10 -8 17 6 34 13 36 14 8 7 -24 3 -46 -6z"/>
<path d="M220 465 c0 -8 4 -15 9 -15 5 0 14 7 21 15 10 13 9 15 -9 15 -12 0
-21 -6 -21 -15z"/>
<path d="M2958 453 c7 -3 16 -2 19 1 4 3 -2 6 -13 5 -11 0 -14 -3 -6 -6z"/>
<path d="M314 433 c3 -19 42 -20 60 -2 6 5 -4 5 -22 0 -37 -11 -43 -5 -9 9 21
8 21 9 -5 9 -19 1 -26 -3 -24 -16z"/>
<path d="M250 426 c6 -6 18 -5 32 1 21 10 21 10 -9 9 -19 -1 -28 -5 -23 -10z"/>
<path d="M498 373 c12 -2 32 -2 45 0 12 2 2 4 -23 4 -25 0 -35 -2 -22 -4z"/>
<path d="M2556 372 c-3 -5 8 -6 25 -4 16 2 29 6 29 8 0 8 -49 4 -54 -4z"/>
<path d="M800 356 c0 -2 7 -7 16 -10 8 -3 12 -2 9 4 -6 10 -25 14 -25 6z"/>
<path d="M2468 353 c7 -3 16 -2 19 1 4 3 -2 6 -13 5 -11 0 -14 -3 -6 -6z"/>
<path d="M2428 343 c7 -3 16 -2 19 1 4 3 -2 6 -13 5 -11 0 -14 -3 -6 -6z"/>
<path d="M928 333 c7 -3 16 -2 19 1 4 3 -2 6 -13 5 -11 0 -14 -3 -6 -6z"/>
<path d="M2988 307 c-36 -14 -35 -20 5 -35 46 -16 47 -16 47 18 0 32 -8 35
-52 17z"/>
<path d="M2118 273 c7 -3 16 -2 19 1 4 3 -2 6 -13 5 -11 0 -14 -3 -6 -6z"/>
<path d="M1308 253 c7 -3 16 -2 19 1 4 3 -2 6 -13 5 -11 0 -14 -3 -6 -6z"/>
<path d="M2865 250 c-16 -7 -17 -9 -3 -9 9 -1 20 4 23 9 7 11 7 11 -20 0z"/>
<path d="M2588 233 c6 -2 18 -2 25 0 6 3 1 5 -13 5 -14 0 -19 -2 -12 -5z"/>
<path d="M2790 231 c11 -8 1 -10 -40 -6 -70 6 -191 -5 -184 -16 3 -5 -2 -9
-11 -9 -8 0 -37 -11 -64 -25 -27 -13 -52 -21 -55 -17 -4 3 -4 -1 0 -11 4 -13
1 -17 -14 -17 -11 0 -33 -15 -47 -32 -15 -18 -24 -27 -19 -19 5 10 3 12 -5 7
-7 -5 -9 -16 -5 -28 4 -13 2 -18 -4 -14 -9 6 -22 -14 -22 -35 0 -5 20 -8 44
-7 31 2 42 7 38 16 -4 11 -6 11 -13 0 -5 -7 -9 -8 -9 -3 0 6 19 29 43 52 110
108 285 133 430 61 22 -11 35 -23 31 -30 -4 -7 -3 -8 5 -4 14 9 85 -59 77 -73
-7 -11 27 -21 72 -21 20 0 32 5 32 13 0 16 -34 50 -42 42 -3 -3 -11 1 -18 10
-7 8 -9 15 -4 15 4 0 -6 11 -24 23 -17 13 -29 26 -27 29 3 3 -8 11 -25 18 -16
7 -30 17 -30 22 0 6 5 6 14 -1 7 -6 21 -9 30 -5 28 11 17 24 -19 24 -21 0 -35
-5 -35 -12 0 -10 -2 -10 -8 0 -5 7 -28 16 -53 21 l-44 9 48 1 c53 1 66 21 13
21 -19 0 -43 3 -53 6 -15 5 -15 4 -3 -5z"/>
<path d="M2420 210 c0 -5 4 -10 9 -10 6 0 13 5 16 10 3 6 -1 10 -9 10 -9 0
-16 -4 -16 -10z"/>
<path d="M3248 213 c6 -2 18 -2 25 0 6 3 1 5 -13 5 -14 0 -19 -2 -12 -5z"/>
<path d="M4200 189 c0 -5 5 -7 10 -4 6 3 10 8 10 11 0 2 -4 4 -10 4 -5 0 -10
-5 -10 -11z"/>
<path d="M3208 173 c6 -2 18 -2 25 0 6 3 1 5 -13 5 -14 0 -19 -2 -12 -5z"/>
<path d="M2405 161 c-3 -5 -2 -12 3 -15 5 -3 9 1 9 9 0 17 -3 19 -12 6z"/>
<path d="M2581 148 c-29 -10 -26 -15 9 -15 16 0 27 3 26 6 -2 3 18 4 46 2 27
-1 54 1 58 5 11 11 -111 13 -139 2z"/>
<path d="M3920 146 c0 -12 9 -16 33 -15 44 1 137 16 111 18 -12 0 -49 4 -83 7
-52 6 -61 5 -61 -10z"/>
<path d="M2793 125 c0 -8 4 -12 9 -9 4 3 8 0 8 -6 0 -7 -6 -10 -14 -7 -73 28
-151 32 -244 11 -21 -4 -24 -3 -12 5 18 13 3 13 -25 1 -17 -7 -17 -9 -2 -9 17
-1 25 -21 7 -21 -5 0 -25 -14 -45 -31 -29 -26 -38 -29 -48 -19 -10 10 -8 12 6
7 12 -5 16 -3 11 5 -5 7 -3 8 6 3 9 -6 11 -4 5 5 -6 9 -4 11 6 5 11 -6 11 -5
2 5 -9 10 -17 7 -39 -13 -24 -23 -26 -27 -11 -33 9 -3 14 -10 11 -16 -4 -5 19
-8 55 -7 34 1 59 4 57 6 -2 3 5 14 16 25 11 11 22 17 25 14 4 -3 12 -1 19 5 9
7 19 7 33 0 12 -7 22 -7 25 -2 4 5 0 12 -6 14 -7 3 15 6 50 6 36 1 62 -3 62
-9 0 -6 10 -8 24 -4 13 3 27 1 30 -5 4 -6 1 -11 -6 -11 -9 0 -9 -3 2 -10 12
-8 12 -10 1 -10 -8 0 -12 -2 -9 -5 11 -12 37 7 31 23 -5 13 -2 12 19 -4 14
-10 24 -22 22 -25 -2 -3 9 -6 24 -5 20 1 27 6 27 21 -1 11 -6 19 -11 18 -6 -1
-11 4 -11 12 0 8 4 12 9 9 4 -3 8 0 8 5 0 14 -23 14 -37 0 -8 -8 -18 -6 -37 6
-14 10 -24 21 -21 25 2 4 -4 15 -14 24 -15 13 -18 14 -18 1z"/>
<path d="M3700 130 c-13 -8 -12 -10 3 -10 10 0 20 -7 23 -15 4 -8 12 -15 20
-15 8 0 14 7 14 15 0 11 12 15 49 15 28 0 53 5 56 10 8 13 -145 13 -165 0z"/>
<path d="M2837 119 c7 -7 15 -10 18 -7 3 3 -2 9 -12 12 -14 6 -15 5 -6 -5z"/>
<path d="M2472 101 c-7 -4 -8 -12 -2 -21 8 -13 10 -12 10 2 0 11 5 15 15 12 8
-4 15 -4 15 -1 0 9 -27 15 -38 8z"/>
<path d="M4088 93 c6 -2 18 -2 25 0 6 3 1 5 -13 5 -14 0 -19 -2 -12 -5z"/>
<path d="M3014 79 c-9 -15 14 -18 32 -4 18 13 18 14 -4 12 -13 -1 -26 -5 -28
-8z"/>
<path d="M3070 86 c0 -2 7 -9 15 -16 12 -10 15 -10 15 4 0 9 -7 16 -15 16 -8
0 -15 -2 -15 -4z"/>
<path d="M2930 53 c0 -4 5 -15 10 -23 8 -13 10 -13 10 2 0 9 -4 20 -10 23 -5
3 -10 3 -10 -2z"/>
<path d="M2610 30 c8 -5 20 -10 25 -10 6 0 3 5 -5 10 -8 5 -19 10 -25 10 -5 0
-3 -5 5 -10z"/>
</g>
</svg>
